<svg xmlns="http://www.w3.org/2000/svg" version="1.1" x="0" y="0" viewBox="0 0 468 468" style="enable-background:new 0 0 512 512" xml:space="preserve" class=""><g><path d="M375.893 220.657c-36.86 0-70.008-16.183-92.727-41.813H52.314v-31.806H262.66a122.973 122.973 0 0 1-10.314-40.718H6.836a6.805 6.805 0 0 0-4.835 2.004A6.81 6.81 0 0 0 0 113.161l.171 243.445c.003 3.767 3.069 6.832 6.836 6.832h206.977a15.903 15.903 0 0 1 15.418 12.006c3.946 15.611 19.468 63.056 66.095 87.919-1.566-24.16-1.099-59.95 10.674-89.849a15.902 15.902 0 0 1 14.797-10.076H375.1a6.844 6.844 0 0 0 6.836-6.836V220.51c-2.013.098-4.028.147-6.043.147zm-46.271 101.442H52.314v-31.806h277.308zm0-71.628H52.314v-31.806h277.308z" opacity="1" data-original="#000000" class=""></path><path d="M375.893 4.637c-50.788 0-92.107 41.319-92.107 92.107s41.319 92.107 92.107 92.107S468 147.532 468 96.744 426.681 4.637 375.893 4.637zm-3.018 161.442c-10.06 0-17.647-7.768-17.647-18.069 0-10.38 7.646-18.207 17.785-18.207 10.061 0 17.648 7.827 17.648 18.207.001 10.302-7.647 18.069-17.786 18.069zm20.856-77.855c-4.561 5.394-6.223 9.419-5.932 14.362l.551 13.504h-29.291l-.951-12.139c-1.139-10.528 2.637-21.391 10.929-31.322 5.675-6.694 7.78-10.352 7.78-13.519 0-1.674 0-2.884-4.37-2.955-2.991.001-6.707 1.083-8.595 2.518l-9.853 7.494-10.346-27.15 5.746-4.166c6.231-4.52 16.34-7.442 25.755-7.442 22.782 0 32.98 15.135 32.98 30.136-.001 12.567-6.524 21.329-14.403 30.679z" opacity="1" data-original="#000000" class=""></path></g></svg>