<svg xmlns="http://www.w3.org/2000/svg" version="1.1" x="0" y="0" viewBox="0 0 64 64" style="enable-background:new 0 0 512 512" xml:space="preserve" class=""><g><path d="M18 33c0-1.1.9-2 2-2s2 .9 2 2-.9 2-2 2-2-.9-2-2zm42-9v28c0 3.3-2.7 6-6 6H10c-3.3 0-6-2.7-6-6V24c0-3.3 2.7-6 6-6h15v-5c0-3.9 3.1-7 7-7s7 3.1 7 7v5h15c3.3 0 6 2.7 6 6zM15.2 36.6C13.3 38.1 12 40.4 12 43h4c0-2.2 1.8-4 4-4s4 1.8 4 4h4c0-2.6-1.3-4.9-3.2-6.4.8-1 1.2-2.3 1.2-3.6 0-3.3-2.7-6-6-6s-6 2.7-6 6c0 1.4.5 2.6 1.2 3.6zM52 45H12v4h40zm0-6H31v4h21zm0-6H31v4h21zm0-6H31v4h21z" opacity="1" data-original="#000000" class=""></path></g></svg>