<svg xmlns="http://www.w3.org/2000/svg" version="1.1" x="0" y="0" viewBox="0 0 512 512" style="enable-background:new 0 0 512 512" xml:space="preserve" class=""><g><path d="M256 2C115.9 2 2 115.9 2 256s113.9 254 254 254 254-113.9 254-254S396.1 2 256 2zm0 457.2C144 459.2 52.8 368 52.8 256S144 52.8 256 52.8 459.2 144 459.2 256 368 459.2 256 459.2z" data-original="#000000" class=""></path><path d="M256.8 230.6c-14.4.5-26.2-11.1-26.2-25.4 0-14 11.4-25.4 25.4-25.4 11.7 0 21.5 7.9 24.5 18.6 1.1 4.1 5.2 6.8 9.5 6.8h31.2c6.4 0 11.1-5.8 10.1-12.1-4.5-27.6-24-50.2-49.8-59.4v-19.9c0-5.6-4.5-10.2-10.2-10.2h-30.5c-5.6 0-10.2 4.5-10.2 10.2v19.9c-44.2 15.8-70 70.6-33.3 123.2 12.9 18.5 35.4 25.2 57.9 24.5 14.4-.5 26.2 11.1 26.2 25.4 0 14-11.4 25.4-25.4 25.4-11.7 0-21.5-7.9-24.5-18.6-1.1-4.1-5.2-6.8-9.5-6.8h-31.2c-6.4 0-11.1 5.8-10.1 12.1 4.5 27.6 24 50.2 49.8 59.4v19.9c0 5.6 4.5 10.2 10.2 10.2h30.5c5.6 0 10.2-4.5 10.2-10.2v-19.9c44.2-15.8 70-70.6 33.3-123.2-12.8-18.5-35.4-25.2-57.9-24.5z" data-original="#000000" class=""></path></g></svg>