<svg xmlns="http://www.w3.org/2000/svg" version="1.1" x="0" y="0" viewBox="0 0 24 24" style="enable-background:new 0 0 512 512" xml:space="preserve" class=""><g><path d="M17.972 3.054 5.606 8H2.25C1.01 8 0 9.01 0 10.25V13c0 1.178.925 2 2.25 2h.85l.908 6.356A.75.75 0 0 0 4.75 22h3a.753.753 0 0 0 .746-.834l-.59-5.246 10.065 4.026a.756.756 0 0 0 .7-.075.75.75 0 0 0 .329-.621V3.75a.75.75 0 0 0-1.028-.696zM21.219 9.336l2.5-2a.751.751 0 0 0-.938-1.172l-2.5 2a.751.751 0 0 0 .938 1.172zM21.219 14.664a.751.751 0 0 0-.938 1.172l2.5 2a.753.753 0 0 0 1.055-.117.751.751 0 0 0-.117-1.055zM23.25 11.25h-2.5a.75.75 0 0 0 0 1.5h2.5a.75.75 0 0 0 0-1.5z" opacity="1" data-original="#000000" class=""></path></g></svg>