<svg xmlns="http://www.w3.org/2000/svg" version="1.1" x="0" y="0" viewBox="0 0 512 512" style="enable-background:new 0 0 512 512" xml:space="preserve" class=""><g><path d="M376.437 279.196c27.998-29.674 45.188-69.651 45.188-113.571C421.625 74.299 347.326 0 256 0S90.375 74.299 90.375 165.625c0 43.92 17.19 83.897 45.188 113.571v130.341h-30.125v27.213L180.687 512l75.25-75.25v-27.213h-30.125v-81.052c9.792 1.811 19.88 2.766 30.188 2.766s20.396-.955 30.188-2.766v33.059h-30.125v27.213l75.25 75.25 75.25-75.25v-27.213h-30.125v-82.348zM210.724 439.537l-30.037 30.037-30.037-30.036h14.912V304.309a165.308 165.308 0 0 0 30.25 15.618v119.609h14.912zm-90.349-273.912C120.375 90.841 181.216 30 256 30s135.625 60.841 135.625 135.625S330.784 301.25 256 301.25s-135.625-60.841-135.625-135.625zM331.312 421.58l-30.037-30.037h14.912v-71.616a165.308 165.308 0 0 0 30.25-15.618v87.233h14.912z" data-original="#000000" class=""></path><path d="M263.877 150.624H248.12c-7.547 0-13.687-6.14-13.687-13.687s6.14-13.687 13.687-13.687h16.037c7.267 0 13.179 5.912 13.179 13.178h30c0-21.481-15.769-39.342-36.338-42.631V75.245h-30V93.84c-20.712 3.412-36.564 21.434-36.564 43.097 0 24.089 19.598 43.687 43.687 43.687h15.757c7.547 0 13.687 6.14 13.687 13.687 0 7.546-6.14 13.686-13.687 13.686H248.48c-7.557 0-13.704-6.147-13.704-13.704h-30c0 21.546 15.677 39.488 36.222 43.049v18.659h30v-18.595c20.712-3.411 36.565-21.433 36.565-43.097 0-24.088-19.597-43.685-43.686-43.685z" data-original="#000000" class=""></path></g></svg>