<svg xmlns="http://www.w3.org/2000/svg" version="1.1" x="0" y="0" viewBox="0 0 64 64" style="enable-background:new 0 0 512 512" xml:space="preserve" class=""><g><path d="m60.832 36.445-4-6A1 1 0 0 0 56 30h-9V13a1.77 1.77 0 0 0-.168-.555l-4-6A1 1 0 0 0 42 6H22a1 1 0 0 0-.832.445l-4 6a.511.511 0 0 0-.062.125A.986.986 0 0 0 17 13v17H8a1 1 0 0 0-.832.445l-4 6A1.786 1.786 0 0 0 3 37v24a1 1 0 0 0 1 1h56a1 1 0 0 0 1-1V37a1.786 1.786 0 0 0-.168-.555Zm-2.7-.445h-8.285l-.667-4h6.285ZM44 38h4v7.131l-1.445-.963a1 1 0 0 0-1.11 0L44 45.131Zm3.153-6 .666 4H47v-4ZM41.465 8l2.667 4h-8.285l-.667-4ZM30.847 8h2.306l.666 4h-3.638ZM30 14h4v7.131l-1.445-.963a1 1 0 0 0-1.11 0L30 21.131Zm-7.465-6h6.285l-.667 4h-8.285ZM19 14h9v9a1 1 0 0 0 1.555.832L32 22.2l2.445 1.63A1 1 0 0 0 36 23v-9h9v22H19Zm-3 24h4v7.131l-1.445-.963a1 1 0 0 0-1.11 0L16 45.131Zm1-6v4h-.819l.666-4Zm-8.465 0h6.285l-.667 4H5.868ZM5 38h9v9a1 1 0 0 0 1.555.832L18 46.2l2.445 1.63A1 1 0 0 0 22 47v-9h9v22H5Zm54 22H33V38h9v9a1 1 0 0 0 1.555.832L46 46.2l2.445 1.63A1 1 0 0 0 50 47v-9h9Z" opacity="1" data-original="#000000" class=""></path></g></svg>