<svg xmlns="http://www.w3.org/2000/svg" version="1.1" x="0" y="0" viewBox="0 0 510 510" style="enable-background:new 0 0 512 512" xml:space="preserve" class=""><g><path d="M375 270h30v45h-30zM180 240v-30h30v30h30v-30h30v30h120V0h-90v75h-90V0h-90v240z" opacity="1" data-original="#000000" class=""></path><path d="M240 0h30v45h-30zM435 345h-90v-75h-75v240h60v-30h30v30h30v-30h30v30h90V270h-75zM105 270h30v45h-30z" opacity="1" data-original="#000000" class=""></path><path d="M165 270v75H75v-75H0v240h45v-30h30v30h30v-30h30v30h105V270z" opacity="1" data-original="#000000" class=""></path></g></svg>