<svg xmlns="http://www.w3.org/2000/svg" version="1.1" x="0" y="0" viewBox="0 0 32 32" style="enable-background:new 0 0 512 512" xml:space="preserve" class=""><g><path d="M27.748 11.336A1 1 0 0 0 27 11h-5V8c0-3.309-2.691-6-6-6s-6 2.691-6 6v3H5a1 1 0 0 0-.994 1.118l1.703 14.323A3.997 3.997 0 0 0 9.685 30h12.63c2.042 0 3.75-1.53 3.975-3.551l1.704-14.331a1.002 1.002 0 0 0-.246-.782zM12 8c0-2.206 1.794-4 4-4s4 1.794 4 4v3h-8zm-1 7a1 1 0 1 1 0-2 1 1 0 0 1 0 2zm10 0a1 1 0 1 1 0-2 1 1 0 0 1 0 2z" data-original="#000000" class=""></path></g></svg>