<svg xmlns="http://www.w3.org/2000/svg" version="1.1" x="0" y="0" viewBox="0 0 512 512" style="enable-background:new 0 0 512 512" xml:space="preserve" class=""><g><path d="M394.667 149.333c20.563 0 40.563 4.552 59.417 13.531 3.313 1.552 7.167 1.354 10.271-.615a10.666 10.666 0 0 0 4.979-9.021v-3.896c0-23.531-19.146-42.667-42.667-42.667h-384C19.146 106.667 0 125.802 0 149.333V256c0 23.531 19.146 42.667 42.667 42.667h202.667A10.66 10.66 0 0 0 256.001 288c-.001-76.458 62.207-138.667 138.666-138.667zM74.292 204.094c5.104 2.948 6.854 9.469 3.896 14.573-1.958 3.417-5.563 5.333-9.229 5.333-1.813 0-3.646-.458-5.333-1.427l-2.479-1.431V224a10.66 10.66 0 0 1-10.667 10.667A10.66 10.66 0 0 1 39.813 224v-2.858l-2.479 1.431A10.673 10.673 0 0 1 32 224c-3.667 0-7.271-1.917-9.229-5.333-2.958-5.104-1.208-11.625 3.896-14.573l2.473-1.427-2.473-1.427c-5.104-2.948-6.854-9.469-3.896-14.573 2.938-5.094 9.479-6.813 14.563-3.906l2.479 1.431v-2.858a10.66 10.66 0 0 1 10.667-10.667 10.66 10.66 0 0 1 10.667 10.667v2.858l2.479-1.431c5.104-2.938 11.625-1.208 14.563 3.906 2.958 5.104 1.208 11.625-3.896 14.573l-2.473 1.427 2.472 1.427zm85.333 0c5.104 2.948 6.854 9.469 3.896 14.573-1.958 3.417-5.563 5.333-9.229 5.333-1.813 0-3.646-.458-5.333-1.427l-2.479-1.431V224c0 5.896-4.771 10.667-10.667 10.667s-10.667-4.771-10.667-10.667v-2.858l-2.479 1.431a10.672 10.672 0 0 1-5.333 1.427c-3.667 0-7.271-1.917-9.229-5.333-2.958-5.104-1.208-11.625 3.896-14.573l2.473-1.427L112 201.24c-5.104-2.948-6.854-9.469-3.896-14.573 2.938-5.094 9.5-6.813 14.563-3.906l2.479 1.431v-2.858c0-5.896 4.771-10.667 10.667-10.667s10.667 4.771 10.667 10.667v2.858l2.479-1.431c5.063-2.938 11.625-1.208 14.563 3.906 2.958 5.104 1.208 11.625-3.896 14.573l-2.473 1.427 2.472 1.427zm85.333 0c5.104 2.948 6.854 9.469 3.896 14.573-1.958 3.417-5.563 5.333-9.229 5.333-1.813 0-3.646-.458-5.333-1.427l-2.479-1.431V224a10.66 10.66 0 0 1-10.667 10.667A10.66 10.66 0 0 1 210.479 224v-2.858L208 222.573a10.672 10.672 0 0 1-5.333 1.427c-3.667 0-7.271-1.917-9.229-5.333-2.958-5.104-1.208-11.625 3.896-14.573l2.473-1.427-2.473-1.427c-5.104-2.948-6.854-9.469-3.896-14.573 2.917-5.094 9.458-6.813 14.563-3.906l2.479 1.431v-2.858a10.66 10.66 0 0 1 10.667-10.667 10.66 10.66 0 0 1 10.667 10.667v2.858l2.479-1.431c5.083-2.938 11.625-1.208 14.563 3.906 2.958 5.104 1.208 11.625-3.896 14.573l-2.473 1.427 2.471 1.427z" opacity="1" data-original="#000000" class=""></path><path d="M394.667 170.667c-64.688 0-117.333 52.635-117.333 117.333s52.646 117.333 117.333 117.333S512 352.698 512 288s-52.646-117.333-117.333-117.333zm60.875 92.875-74.667 74.667a10.634 10.634 0 0 1-7.542 3.125 10.636 10.636 0 0 1-7.542-3.125l-32-32c-4.167-4.167-4.167-10.917 0-15.083 4.167-4.167 10.917-4.167 15.083 0l24.458 24.458 67.125-67.125c4.167-4.167 10.917-4.167 15.083 0 4.168 4.166 4.168 10.916.002 15.083z" opacity="1" data-original="#000000" class=""></path></g></svg>