<svg xmlns="http://www.w3.org/2000/svg" version="1.1" x="0" y="0" viewBox="0 0 120 120" style="enable-background:new 0 0 512 512" xml:space="preserve"><g><g fill="#000"><path d="M32 47a4 4 0 0 0 0 8h34a4 4 0 0 0 0-8zM32 64a4 4 0 0 0 0 8h20a4 4 0 0 0 0-8zM28 86a4 4 0 0 1 4-4h16a4 4 0 0 1 0 8H32a4 4 0 0 1-4-4z" data-original="#000000"></path><path fill-rule="evenodd" d="m86 46.473 5.937-5.937a5 5 0 0 1 7.071 0l7.259 7.258a5 5 0 0 1 0 7.071L86 75.132V105a5 5 0 0 1-5 5H19a5 5 0 0 1-5-5V15a5 5 0 0 1 5-5h62a5 5 0 0 1 5 5zM78 28H22V18h56zm-56 8h56v18.473L64.782 67.69c-.657.658-1.029 1.462-1.36 2.313l-5.19 13.319c-1.266 3.245 1.933 6.444 5.178 5.18l12.92-5.036c.558-.217 1.134-.31 1.67-.606V102H22zm74.022 17.797 2.467-2.467-3.016-3.016-2.467 2.466zm-8.673 2.64 3.016 3.016-16.35 16.35c-1.704.544-3.357 1.288-5.022 1.937l1.894-4.84z" clip-rule="evenodd" data-original="#000000"></path></g></g></svg>