<svg xmlns="http://www.w3.org/2000/svg" version="1.1" xmlns:xlink="http://www.w3.org/1999/xlink" width="512" height="512" x="0" y="0" viewBox="0 0 443.442 443.442" style="enable-background:new 0 0 512 512" xml:space="preserve" class=""><g><path d="m436.083 190.376-115.52 83.927 44.13 135.801c2.388 7.353-.236 15.403-6.479 19.954a17.863 17.863 0 0 1-10.498 3.405 17.773 17.773 0 0 1-10.479-3.405l-115.514-83.933-115.508 83.921a17.832 17.832 0 0 1-20.986 0 17.846 17.846 0 0 1-6.475-19.942l44.118-135.807L7.364 190.376a17.84 17.84 0 0 1-6.49-19.948 17.867 17.867 0 0 1 16.979-12.33h142.78l44.118-135.791c2.391-7.353 9.245-12.327 16.979-12.327s14.576 4.974 16.964 12.327l44.118 135.791h142.792c7.72 0 14.576 4.977 16.976 12.33a17.902 17.902 0 0 1-6.497 19.948z" opacity="1" data-original="#000000" class=""></path></g></svg>