<svg xmlns="http://www.w3.org/2000/svg" version="1.1" x="0" y="0" viewBox="0 0 64 64" style="enable-background:new 0 0 512 512" xml:space="preserve" class=""><g><g data-name="Layer 7"><path d="M12.6 31.751 1.385 27.078l-.77 1.845L8 32v9a1 1 0 0 0 1 1h5.055a13.279 13.279 0 0 0 1.823 2.293 2.408 2.408 0 0 0 3.742-.418l.193.243a2.342 2.342 0 0 0 4.082-.811 2.4 2.4 0 0 0 3.772-.518A2.346 2.346 0 0 0 30.561 42H45a1 1 0 0 0 1-1V9a1 1 0 0 0-1-1H9a1 1 0 0 0-1 1v8.339l-6.457-4.178L.457 14.84 16.63 25.305ZM10 40v-7.166l2 .833v1.262A13.224 13.224 0 0 0 13 40Zm18.36.87-4.591-5.51-1.538 1.281 2.487 2.983 1.131 1.508a.764.764 0 0 1 .151.454.43.43 0 0 1-.707.293l-4.586-4.586-1.414 1.415 1.885 1.885.637 1.273a1.75 1.75 0 0 1 .185.783.365.365 0 0 1-.624.22l-3.6-4.493-1.562 1.249 1.678 2.1a3.822 3.822 0 0 1 .1.864.43.43 0 0 1-.707.293A11.173 11.173 0 0 1 14 34.929v-1.643l4.449-7.119 3.21.357a78.207 78.207 0 0 0 8.6.476.743.743 0 0 1 .234 1.449A10.712 10.712 0 0 1 27.1 29H25a1 1 0 0 0-.895 1.448l4.715 9.428a1.711 1.711 0 0 1 .18.762.376.376 0 0 1-.64.232ZM24 10h6v8h-6Zm-14 8.633V10h12v9a1 1 0 0 0 1 1h8a1 1 0 0 0 1-1v-9h12v30H30.925a3.66 3.66 0 0 0-.316-1.018L30.118 38H42v-2H29.118l-2.5-5h.482a12.752 12.752 0 0 0 4.029-.653A2.744 2.744 0 0 0 30.257 25a76.435 76.435 0 0 1-8.377-.463l-3.331-.37-.006-.006ZM43.294 44.091l-5.057.722A2.62 2.62 0 0 0 36 47.381l-6.13-1.226a7.035 7.035 0 0 0-4.491.538 2.494 2.494 0 0 0 .326 4.6l12.9 4.3a8.01 8.01 0 0 0 4.475.172l5.972-1.493a.99.99 0 0 0 .872.73l13 1L63.077 54 51 53.074V47h12v-2H50a.989.989 0 0 0-.732.331 9.035 9.035 0 0 0-5.974-1.24Zm-.7 9.73a6.022 6.022 0 0 1-3.357-.129l-12.9-4.3a.494.494 0 0 1-.064-.91 5.023 5.023 0 0 1 3.205-.366l7.95 1.59a2.575 2.575 0 0 0 1.178.294H42v-2h-3.394a.607.607 0 0 1-.085-1.207l5.056-.722a7.076 7.076 0 0 1 4.89 1.109l.533.356v4.684Z" data-original="#000000"></path><path d="M34 32h8v2h-8z" data-original="#000000"></path></g></g></svg>