<svg xmlns="http://www.w3.org/2000/svg" version="1.1" x="0" y="0" viewBox="0 0 500 500" style="enable-background:new 0 0 512 512" xml:space="preserve" class=""><g><path fill-rule="evenodd" d="M115.002 211.755c0 37.023 30.012 67.034 67.034 67.034 19.083 0 37.095-8.041 49.848-22.219l.703-.782a.867.867 0 0 1 1.086-.172l100.692 58.134c.346.2.509.591.408.977l-.251.957c-7.237 27.645 9.191 56.024 36.872 63.443 27.719 7.429 56.293-9.001 63.741-36.797 8.126-30.322-12.294-61.218-43.881-65.104-15.868-1.952-31.602 3.38-42.982 14.613l-.704.695a.864.864 0 0 1-1.05.135l-100.667-58.12a.865.865 0 0 1-.395-1.021c4.866-15.306 4.865-28.242 0-43.547a.866.866 0 0 1 .395-1.021l100.68-58.128a.862.862 0 0 1 1.05.135l.704.696c9.775 9.662 22.835 15.03 36.582 15.03 28.743 0 52.042-23.3 52.042-52.043s-23.3-52.042-52.043-52.042c-16.459 0-31.649 7.58-41.545 20.725-9.614 12.771-12.853 29.025-8.812 44.499l.25.957a.862.862 0 0 1-.408.976l-100.679 58.127a.867.867 0 0 1-1.086-.172l-.703-.781c-12.754-14.177-30.764-22.219-49.848-22.219-37.021.001-67.033 30.012-67.033 67.035zm121.271-65.499a.858.858 0 0 1-.987-.079c-15.046-12.237-33.795-18.894-53.25-18.894-46.648 0-84.473 37.825-84.473 84.473s37.825 84.473 84.473 84.473c19.454 0 38.205-6.657 53.251-18.894a.858.858 0 0 1 .987-.079l47.17 27.234a.869.869 0 0 1 .378 1.071c-20.355 52.719-56.661 105.289-94.324 147.092-1.963 2.179-4.286 4.742-7.462 4.742-3.195 0-5.499-2.407-7.412-4.685-40.303-47.983-82.299-109.774-101.209-169.621-6.861-21.713-11.221-44.809-10.188-67.653 1.888-41.757 23.388-81.081 59.238-103.141 45.567-28.039 102.827-20.643 140.824 17.095.199.198.286.453.25.732s-.186.503-.429.644zm29.185 52.168a.858.858 0 0 1 .426-.893l27.85-16.079a.849.849 0 0 1 .755-.057.85.85 0 0 1 .516.554c6.335 20.378 7.198 41.041 4.698 62.147-.036.3-.205.542-.476.678s-.566.127-.828-.024l-32.514-18.772a.86.86 0 0 1-.426-.893 85.055 85.055 0 0 0-.001-26.661z" clip-rule="evenodd" opacity="1" data-original="#000000"></path></g></svg>