<svg xmlns="http://www.w3.org/2000/svg" version="1.1" x="0" y="0" viewBox="0 0 24 24" style="enable-background:new 0 0 512 512" xml:space="preserve" class=""><g><path d="M12.75 21a.75.75 0 0 1-.75.75H8A4.756 4.756 0 0 1 3.25 17V7A4.756 4.756 0 0 1 8 2.25h4a.75.75 0 0 1 0 1.5H8A3.254 3.254 0 0 0 4.75 7v10A3.254 3.254 0 0 0 8 20.25h4a.75.75 0 0 1 .75.75zm7.78-9.53-4-4a.75.75 0 1 0-1.06 1.061l2.72 2.72H10a.75.75 0 0 0 0 1.5h8.19l-2.72 2.72a.75.75 0 0 0 1.06 1.061l4-4a.75.75 0 0 0 0-1.062z" data-original="#000000"></path></g></svg>