<svg xmlns="http://www.w3.org/2000/svg" version="1.1" x="0" y="0" viewBox="0 0 512 512" style="enable-background:new 0 0 512 512" xml:space="preserve" class=""><g><path d="m479.219 295.005-132.97-37.812C361.741 237.598 371 212.861 371 186v-60c0-63.411-51.589-115-115-115S141 62.589 141 126v60c0 26.861 9.259 51.598 24.75 71.194L32.78 295.006 0 413.971v11.486l7.074 4.403C81.848 476.4 167.925 501 256 501s174.152-24.6 248.926-71.14l7.074-4.403v-11.486l-32.781-118.966zM256 41a84.484 84.484 0 0 1 33.932 7.088c-7.785 33.116-57.365 60.213-117.839 64.358C178.604 71.998 213.744 41 256 41zm-85 101.582c37.134-2.056 71.754-11.719 98.746-27.734 13.538-8.033 24.58-17.296 32.906-27.446a82.105 82.105 0 0 0 5.145 8.343c8.777 12.434 20.368 20.91 32.981 24.425.131 1.929.222 65.83.222 65.83 0 46.869-38.131 85-85 85s-85-38.131-85-85v-43.418zm173.35 145.262-40.016 75.627-3.334-18.79v-52.855a114.821 114.821 0 0 0 19.602-10.735l23.748 6.753zM271 301v30h-30v-30h30zm-79.602-19.908A115.024 115.024 0 0 0 211 291.826v52.855l-3.334 18.791-40.016-75.627 23.748-6.753zM32.208 410.015l25.011-90.769 80.929-23.013 92.333 174.501c-68.552-4.022-136.438-24.252-198.273-60.719zM256 454.817l-25.516-48.223L238.573 361h34.854l8.089 45.594L256 454.817zm25.519 15.917 92.333-174.501 80.929 23.013 25.011 90.77c-61.835 36.466-129.721 56.696-198.273 60.718z" opacity="1" data-original="#000000" class=""></path></g></svg>