<svg xmlns="http://www.w3.org/2000/svg" version="1.1" x="0" y="0" viewBox="0 0 64 64" style="enable-background:new 0 0 512 512" xml:space="preserve" class=""><g><path d="M16 19a8 8 0 1 1 8-8 8.009 8.009 0 0 1-8 8zm0-14a6 6 0 1 0 6 6 6.006 6.006 0 0 0-6-6zM9 61a1 1 0 0 1-1-1V42a1 1 0 0 1 2 0v18a1 1 0 0 1-1 1zM16 61a1 1 0 0 1-1-1V47a1 1 0 0 1 2 0v13a1 1 0 0 1-1 1zM23 61a1 1 0 0 1-1-1V42a1 1 0 0 1 2 0v18a1 1 0 0 1-1 1z" opacity="1" data-original="#000000" class=""></path><path d="M14 43h-4a7.008 7.008 0 0 1-7-7V25c0-3.282 6.54-5 13-5s13 1.718 13 5a1 1 0 0 1-2 0c0-1.019-3.883-3-11-3S5 23.981 5 25v11a5.006 5.006 0 0 0 5 5h4a1 1 0 0 1 0 2z" opacity="1" data-original="#000000" class=""></path><path d="M15 38h-2a5.006 5.006 0 0 1-5-5v-4a1 1 0 0 1 2 0v4a3 3 0 0 0 3 3h2a1 1 0 0 1 0 2zM23 43h-3.5a1 1 0 0 1 0-2H23a1 1 0 0 1 0 2z" opacity="1" data-original="#000000" class=""></path><path d="M29 43H17a1 1 0 0 1-.99-1.142l2-14A1 1 0 0 1 19 27h12a1 1 0 0 1 .99 1.142l-.429 3a1 1 0 1 1-1.979-.284L29.847 29h-9.98l-1.714 12h9.98l.306-2.142a1 1 0 1 1 1.979.284l-.428 3A1 1 0 0 1 29 43z" opacity="1" data-original="#000000" class=""></path><path d="M32 38h-2a3 3 0 0 1 0-6h2a1 1 0 0 1 1 1v4a1 1 0 0 1-1 1zm-2-4a1 1 0 0 0 0 2h1v-2zM41 33h-5a1 1 0 0 1 0-2h5a1 1 0 0 1 0 2z" opacity="1" data-original="#000000" class=""></path><path d="M46 33h-5a1 1 0 0 1 0-2h5a1 1 0 0 1 0 2zM46 13h-5a1 1 0 0 1 0-2h5a1 1 0 0 1 0 2zM46 53h-5a1 1 0 0 1 0-2h5a1 1 0 0 1 0 2z" opacity="1" data-original="#000000" class=""></path><path d="M41 53a1 1 0 0 1-1-1V12a1 1 0 0 1 2 0v40a1 1 0 0 1-1 1zM51 18a6 6 0 1 1 6-6 6.006 6.006 0 0 1-6 6zm0-10a4 4 0 1 0 4 4 4 4 0 0 0-4-4zM51 38a6 6 0 1 1 6-6 6.006 6.006 0 0 1-6 6zm0-10a4 4 0 1 0 4 4 4 4 0 0 0-4-4zM51 58a6 6 0 1 1 6-6 6.006 6.006 0 0 1-6 6zm0-10a4 4 0 1 0 4 4 4 4 0 0 0-4-4z" opacity="1" data-original="#000000" class=""></path></g></svg>