<svg xmlns="http://www.w3.org/2000/svg" version="1.1" x="0" y="0" viewBox="0 0 401.16 401.161" style="enable-background:new 0 0 512 512" xml:space="preserve" class=""><g><path d="M391.044 83.718 203.708.664a7.707 7.707 0 0 0-6.258 0L10.116 83.718c-3.18 1.41-4.536 4.306-4.536 7.99v216.257a7.491 7.491 0 0 0 4.379 6.815l187.505 85.701a7.492 7.492 0 0 0 3.115.679c1.192 0 2.032-.134 3.108-.693.002.005 187.514-85.688 187.514-85.688a7.497 7.497 0 0 0 4.379-6.815V91.708c0-3.489-1.355-6.581-4.536-7.99zm-271.896 51.407a7.492 7.492 0 0 0-4.242 6.749v73.108l-36.617-17.278v-72.346l176.623-85.101 31.834 14.113-167.598 80.755zM200.58 16.169l36.352 16.116-162.375 78.238-42.733-19.532L200.58 16.169zm-7.492 365.834L20.567 303.15V102.322l42.735 19.533v80.598a7.488 7.488 0 0 0 4.297 6.776l51.604 24.354a7.478 7.478 0 0 0 7.207-.446 7.498 7.498 0 0 0 3.482-6.331V152.29l63.196 28.884v200.829zm7.492-213.879-59.218-27.068 163.364-78.711 64.61 28.646-168.756 77.133zM380.593 303.15l-172.519 78.854V181.175l172.519-78.854V303.15z" data-original="#000000" class=""></path></g></svg>