<svg xmlns="http://www.w3.org/2000/svg" version="1.1" x="0" y="0" viewBox="0 0 32 32" style="enable-background:new 0 0 512 512" xml:space="preserve" fill-rule="evenodd" class=""><g><path d="M16 1C7.721 1 1 7.721 1 16s6.721 15 15 15 15-6.721 15-15S24.279 1 16 1zm0 2c7.175 0 13 5.825 13 13s-5.825 13-13 13S3 23.175 3 16 8.825 3 16 3zM7.5 13.5a2.5 2.5 0 0 1 0 5 2.5 2.5 0 0 1 0-5zm8.5 0a2.5 2.5 0 0 1 0 5 2.5 2.5 0 0 1 0-5zm8.5 0a2.5 2.5 0 0 1 0 5 2.5 2.5 0 0 1 0-5z" opacity="1" data-original="#000000" class=""></path></g></svg>