<svg xmlns="http://www.w3.org/2000/svg" version="1.1" x="0" y="0" viewBox="0 0 512 512" style="enable-background:new 0 0 512 512" xml:space="preserve" class=""><g><path d="M435.67 360.61a8 8 0 0 0-4.71-3.92l-30.54-9.54a8 8 0 0 0-10.02 5.25l-2.4 7.67-68.68-21.45-32.26-10.14a23.98 23.98 0 0 0-19.2 2.11l-83.15 48.03a24.1 24.1 0 0 0-11.84 14.84l-65.45-20.43a24 24 0 0 0-30.06 15.75l-4.77 15.27a24.005 24.005 0 0 0 15.75 30.07l168.45 52.6a23.886 23.886 0 0 0 18.1-1.55l69.48-35.75a8.064 8.064 0 0 1 6.04-.52l8.98 2.81-2.38 7.6a8.01 8.01 0 0 0 5.25 10.02l30.55 9.54a7.922 7.922 0 0 0 2.39.36 8 8 0 0 0 7.63-5.61l33.39-106.91a8.036 8.036 0 0 0-.55-6.1Zm-80.49 73.02a23.834 23.834 0 0 0-18.14 1.57l-69.44 35.73a7.98 7.98 0 0 1-6.04.51l-168.45-52.6a8 8 0 0 1-5.25-10.02l4.77-15.27a7.975 7.975 0 0 1 10.02-5.25l72.03 22.49a1.009 1.009 0 0 1 .07.15l7.43 14.16a24.007 24.007 0 0 0 32.4 10.12l63.77-33.42a8 8 0 1 0-7.43-14.17l-63.77 33.42a8.016 8.016 0 0 1-10.8-3.37l-7.42-14.17a8.335 8.335 0 0 1-.61-1.49 8.008 8.008 0 0 1 3.98-9.31c.1-.05.19-.11.29-.16l83.28-48.11a7.981 7.981 0 0 1 6.39-.7l32.28 10.15 68.69 21.45-19.07 61.09Zm34.76 27.58-15.27-4.77 2.16-6.93c.09-.22.18-.43.25-.66l23.84-76.36c.07-.23.13-.46.18-.68l2.19-7 15.27 4.77ZM288 72a48 48 0 1 0 48 48 48.053 48.053 0 0 0-48-48Zm0 80a32 32 0 1 1 32-32 32.036 32.036 0 0 1-32 32ZM408 232h32a8 8 0 0 0 0-16h-16a8 8 0 0 0-16 0 24 24 0 0 0 0 48h15c4.71 0 9 3.813 9 8a8.009 8.009 0 0 1-8 8h-32a8 8 0 0 0 0 16h16a8 8 0 0 0 16 0 24.028 24.028 0 0 0 24-24c0-13.01-11.448-24-25-24h-15a8 8 0 0 1 0-16Z" opacity="1" data-original="#000000" class=""></path><path d="M464 182.28V24a8 8 0 0 0-8-8H120a8 8 0 0 0-8 8v128H32a24.032 24.032 0 0 0-24 24v112a24.032 24.032 0 0 0 24 24h176a24.032 24.032 0 0 0 24-24v-64h102.02A88.01 88.01 0 1 0 464 182.28ZM128 32h320v142.02a87.7 87.7 0 0 0-32-6.02c-1.79 0-3.57.06-5.33.17A31.992 31.992 0 0 1 432 160a8 8 0 0 0 8-8V88a8 8 0 0 0-8-8 32.042 32.042 0 0 1-32-32 8 8 0 0 0-8-8H184a8 8 0 0 0-8 8 32.042 32.042 0 0 1-32 32 8 8 0 0 0-8 8v64h-8Zm88 256a8.011 8.011 0 0 1-8 8H32a8.011 8.011 0 0 1-8-8v-56h192Zm0-72H24v-16h192Zm0-32H24v-8a8.011 8.011 0 0 1 8-8h176a8.011 8.011 0 0 1 8 8Zm-8-32h-37.47a47.467 47.467 0 0 0-18.53-7.34V95.33A48.116 48.116 0 0 0 191.33 56h193.34A48.116 48.116 0 0 0 424 95.33v49.34a48 48 0 0 0-35.86 27.85A87.843 87.843 0 0 0 365.46 184H232v-8a24.032 24.032 0 0 0-24-24Zm24 56v-8h116.17a89.006 89.006 0 0 0-5.89 8Zm184 120a72 72 0 1 1 72-72 72.083 72.083 0 0 1-72 72Z" opacity="1" data-original="#000000" class=""></path></g></svg>