<svg xmlns="http://www.w3.org/2000/svg" version="1.1" x="0" y="0" viewBox="0 0 512 512.01" style="enable-background:new 0 0 512 512" xml:space="preserve" class=""><g><path fill="#f0f0f0" d="M256 512c141.38 0 256-114.63 256-256S397.38 0 256 0 0 114.63 0 256s114.61 256 256 256z" opacity="1" data-original="#f0f0f0" class=""></path><path fill="#74acdf" fill-rule="evenodd" d="M25.4 144.65a256.14 256.14 0 0 1 461.2 0zm461.19 222.72a256.14 256.14 0 0 1-461.2 0z" opacity="1" data-original="#74acdf" class=""></path><path fill="#ffda44" d="m332.51 256-31.26 14.65L317.89 301l-33.95-6.4-4.3 34.28L256 303.52l-23.65 25.32-4.35-34.28-33.95 6.54 16.64-30.29L179.47 256l31.26-14.65-16.64-30.3 33.95 6.4 4.31-34.28L256 208.51l23.65-25.32 4.3 34.28 33.95-6.4-16.64 30.3z" opacity="1" data-original="#ffda44"></path></g></svg>