<svg xmlns="http://www.w3.org/2000/svg" version="1.1" x="0" y="0" viewBox="0 0 512 512" style="enable-background:new 0 0 512 512" xml:space="preserve" class=""><g><path d="M348.271 31.319V13.832H163.729v17.487H113v33.545c0 38.818 31.476 70.413 70.245 70.625 11.979 12.882 28.553 21.422 47.088 22.999v62.857h-42.667v39.82h136.667v-39.82h-42.667v-62.857c18.536-1.578 35.109-10.118 47.088-22.999C367.523 135.277 399 103.681 399 64.864V31.319h-50.729zM143 64.864v-3.545h20.729v24.626c0 5.208.561 10.286 1.604 15.187C152.097 94.426 143 80.689 143 64.864zm226 0c0 15.826-9.097 29.562-22.334 36.268a72.816 72.816 0 0 0 1.604-15.187V61.319H369v3.545zM0 397.689h130.67v100.48H0zM381.33 351.788H512v146.38H381.33zM160.67 291.168h190.67v207H160.67z" opacity="1" data-original="#000000" class=""></path></g></svg>