<svg xmlns="http://www.w3.org/2000/svg" version="1.1" x="0" y="0" viewBox="0 0 512 512" style="enable-background:new 0 0 512 512" xml:space="preserve" class=""><g><path d="M428.577 200.869c25.674-30.332 32.331-71.266 19.971-107.097-19.316-6.001-39.609-8.901-60.074-8.416-.011.466-.028.932-.043 1.399 10.315 10.414 19.178 22.615 26.071 36.451 12.439 24.963 16.796 51.84 14.075 77.663z" data-original="#000000"></path><path d="M334.488 213.086c13.738-13.833 25.542-30.054 34.712-48.459 12.656-25.402 19-52.301 19.631-78.914-24.9.59-50.05 6.184-73.991 17.268v74.328a77.282 77.282 0 0 1-8.726 35.75l28.374.027z" data-original="#000000"></path><path d="M273.318 45.61c30.332-25.674 71.266-32.331 107.097-19.971 6.001 19.316 8.901 39.609 8.416 60.074-.466.011-.932.028-1.399.043-10.414-10.315-22.616-19.178-36.451-26.071-24.963-12.439-51.84-16.795-77.663-14.075z" data-original="#000000"></path><path d="m74.238 93.907-32.889 27.912h35.088" style="stroke-width:20;stroke-linecap:round;stroke-linejoin:round;stroke-miterlimit:10;" fill="none" stroke="#000000" stroke-width="20" stroke-linecap="round" stroke-linejoin="round" stroke-miterlimit="10" data-original="#000000" class=""></path><circle cx="117.657" cy="99.228" r="11.611" data-original="#000000"></circle><path d="M307.749 209.795c4.552-9.886 7.091-20.89 7.091-32.488V96.895h0a81.654 81.654 0 0 1-69.128 38.196h-36.141c-8.361 0-14.482-7.821-12.529-15.95a61.984 61.984 0 0 0 1.631-17.451c-1.502-31.537-27.122-57.107-58.662-58.548-35.348-1.615-64.514 26.565-64.514 61.558 0 11.962 3.411 23.127 9.309 32.578a9.366 9.366 0 0 1 1.41 4.963v35.065c0 11.597 2.539 22.601 7.09 32.486" style="stroke-width:20;stroke-linecap:round;stroke-linejoin:round;stroke-miterlimit:10;" fill="none" stroke="#000000" stroke-width="20" stroke-linecap="round" stroke-linejoin="round" stroke-miterlimit="10" data-original="#000000" class=""></path><path d="M213.828 211.548c-1.362-.596-1.35-2.601.211-3.069 19.327-5.796 44.986-17.087 51.886-39.349.328-1.059-.513-2.121-1.663-2.121h-81.06c-20.927 0-37.892 16.294-37.892 36.394 0 2.803.349 5.525.976 8.145h67.542z" data-original="#000000"></path><path d="M418.737 211.102a111.31 111.31 0 0 0 3.572-3.418c43.025-43.025 43.025-112.782 0-155.807s-112.782-43.025-155.807 0c-22.553 22.553-33.284 52.45-32.193 81.993M442.529 280.144v212.247H69.479V280.144M68.976 212.827l-25.68 65.26h425.417l-25.537-64.895" style="stroke-width:20;stroke-linecap:round;stroke-linejoin:round;stroke-miterlimit:10;" fill="none" stroke="#000000" stroke-width="20" stroke-linecap="round" stroke-linejoin="round" stroke-miterlimit="10" data-original="#000000" class=""></path><path d="m502 251.267-59.459-39.719-373.082-.243L10 251.024" style="stroke-width:20;stroke-linecap:round;stroke-linejoin:round;stroke-miterlimit:10;" fill="none" stroke="#000000" stroke-width="20" stroke-linecap="round" stroke-linejoin="round" stroke-miterlimit="10" data-original="#000000" class=""></path><circle cx="387.94" cy="86.247" r="15" data-original="#000000"></circle></g></svg>