<svg xmlns="http://www.w3.org/2000/svg" version="1.1" xmlns:xlink="http://www.w3.org/1999/xlink" width="512" height="512" x="0" y="0" viewBox="0 0 415.97 415.97" style="enable-background:new 0 0 512 512" xml:space="preserve" class=""><g><path d="M181.858 225.618c5.005-5.004 5.005-13.118.001-18.122-5.004-5.005-13.118-5.005-18.122-.001-5.005 5.004-5.005 13.118-.001 18.122l.001.001c5.069 4.844 13.052 4.844 18.121 0zM243.17 274.126c-7.067.011-12.788 5.749-12.777 12.816s5.749 12.788 12.816 12.777 12.788-5.749 12.777-12.816a12.795 12.795 0 0 0-3.754-9.035 12.75 12.75 0 0 0-9.062-3.742z" opacity="1" data-original="#000000"></path><path d="m324.448 91.056-73.141-73.141c-23.944-23.887-62.704-23.887-86.648 0L91.522 91.056c-8.594 8.594-15.324 24.844-15.324 37v261.555c.017 14.549 11.806 26.34 26.355 26.359h210.859c14.551-.017 26.342-11.809 26.359-26.359V128.056c.001-12.156-6.729-28.406-15.323-37zM193.985 46.751c7.731-7.732 20.267-7.732 27.999-.001s7.732 20.267.001 27.999-20.267 7.732-27.999.001l-.001-.001c-7.731-7.729-7.733-20.262-.004-27.994l.004-.004zm-41.56 149.438c10.883-10.891 29.863-10.891 40.746 0h.004c11.254 11.253 11.255 29.498.003 40.753-11.253 11.254-29.498 11.255-40.753.003-11.254-11.253-11.255-29.498-.003-40.753l.003-.003zm5.16 113.953a8.001 8.001 0 0 1-5.657-13.656l100.8-100.797c3.124-3.124 8.189-3.124 11.312 0a8 8 0 0 1 0 11.313L163.241 307.798a7.975 7.975 0 0 1-5.656 2.344zm105.961-2.836c-11.253 11.252-29.496 11.251-40.748-.002s-11.251-29.496.002-40.748c11.252-11.251 29.494-11.251 40.746 0h.004c11.251 11.254 11.25 29.498-.004 40.75z" opacity="1" data-original="#000000"></path></g></svg>