<svg xmlns="http://www.w3.org/2000/svg" version="1.1" x="0" y="0" viewBox="0 0 128 128" style="enable-background:new 0 0 512 512" xml:space="preserve" class=""><g><g data-name="Glyph"><path d="M98.21 121.97a23.189 23.189 0 0 1-13.18-16.07 1.533 1.533 0 0 0-.5-.82 27.532 27.532 0 0 1-6.11-7.55 6.66 6.66 0 0 1 6.91-9.85 10.372 10.372 0 0 0 2.44.15 1.5 1.5 0 0 0 1.12-.61 22.443 22.443 0 0 1 12.97-8.6 1.488 1.488 0 0 0 1.14-1.45V66.23a1.507 1.507 0 0 0-1.29-1.49c-.87-.13-1.64-.27-2.35-.44a25.505 25.505 0 0 1-8.32-3.68 1.42 1.42 0 0 0-.95-.26 30.486 30.486 0 0 1-10.86-1.34c-5.519-1.427-6.747-9.354-1.92-12.39a12.763 12.763 0 0 0 2.5-2.22 1.464 1.464 0 0 0 .35-1.2 25.505 25.505 0 0 1 1.94-13.96 25.211 25.211 0 0 1 19.59-14.83 1.5 1.5 0 0 0 1.28-1.56A13.469 13.469 0 0 0 89.5 0h-51A13.52 13.52 0 0 0 25 13.5v22.3a1.513 1.513 0 0 0 1.66 1.49 34.01 34.01 0 0 1 3.45-.19 32.946 32.946 0 0 1 29.97 19.33 1.506 1.506 0 0 0 .91.82 19.294 19.294 0 0 0 5.97.96A7.823 7.823 0 0 1 73 70.96a38.7 38.7 0 0 1-11.37 9.75 1.446 1.446 0 0 0-.69.79 32.876 32.876 0 0 1-30.88 21.4 33.509 33.509 0 0 1-3.4-.2 1.515 1.515 0 0 0-1.66 1.49v10.31A13.52 13.52 0 0 0 38.5 128h51a13.43 13.43 0 0 0 9.11-3.56 1.5 1.5 0 0 0-.4-2.47zM54.6 11a6.354 6.354 0 0 1-5.49-3.52L46.71 3H81.3l-2.41 4.48A6.354 6.354 0 0 1 73.4 11zm19.9 104h-21a1.5 1.5 0 0 1 0-3h21a1.5 1.5 0 0 1 0 3zM105.483 103h3.962l1.072-4h-3.962z" opacity="1" data-original="#000000" class=""></path><path d="M99.818 82.4a19.636 19.636 0 0 0-9.422 7.96.445.445 0 0 1-.3.2 14.406 14.406 0 0 1-5.293.081 3.645 3.645 0 0 0-3.779 5.395 23.589 23.589 0 0 0 6.5 7.583.429.429 0 0 1 .178.279c1.407 9.644 10.485 17.275 19.961 17.171a19.984 19.984 0 0 0 16.2-31.363A20.2 20.2 0 0 0 99.818 82.4zM116.5 99h-2.877l-1.071 4h2.948a1.5 1.5 0 0 1 0 3h-3.752l-.959 3.577a1.5 1.5 0 1 1-2.9-.777l.75-2.8h-3.962l-.97 3.621a1.5 1.5 0 1 1-2.9-.777l.762-2.844H99.5a1.5 1.5 0 0 1 0-3h2.877l1.071-4H100.5a1.5 1.5 0 0 1 0-3h3.752l.959-3.577a1.5 1.5 0 1 1 2.9.777l-.75 2.8h3.962l.97-3.621a1.5 1.5 0 1 1 2.9.777L114.427 96h2.073a1.5 1.5 0 0 1 0 3zM84.848 30.462a22.361 22.361 0 0 0-1.45 13.8.731.731 0 0 1-.122.573A16.442 16.442 0 0 1 79 49.118a3.948 3.948 0 0 0 1.081 7.025 26.036 26.036 0 0 0 11.085 1.086.651.651 0 0 1 .484.122 22.841 22.841 0 0 0 13.729 4.67c16.437.075 27.483-17.91 19.887-32.668-8.533-16.572-32.855-16.011-40.418 1.109zm22.025 19.176a2.783 2.783 0 0 1-2.746 0c-5.867-3.335-9.2-7.476-9.058-12.725A5.886 5.886 0 0 1 100.928 31a5.817 5.817 0 0 1 4.572 2.217A5.817 5.817 0 0 1 110.072 31a5.886 5.886 0 0 1 5.859 5.913c.147 5.249-3.191 9.387-9.058 12.725zM58.5 79.392a1.422 1.422 0 0 1 .726-.819 34.811 34.811 0 0 0 11.455-9.521 4.82 4.82 0 0 0-3.719-7.841 22.855 22.855 0 0 1-8.262-1.592 1.544 1.544 0 0 1-.881-.851 29.844 29.844 0 0 0-11.925-14.155C24.755 31.363-2.355 48.951.438 73.62 2.089 88.2 15.577 100.244 30.12 99.94c12.27.268 24.651-8.509 28.38-20.548zM23 82.721a2.968 2.968 0 0 1-1.5.407h-4a3 3 0 0 1-3-3v-15a3 3 0 0 1 3-3h4a2.992 2.992 0 0 1 1.5.4zm3-1.344V63.411c2.938-2.726 4.828-8.276 6.087-10.892 2.216-4.608 6.68 1.573 5.589 4.9-.377 1.152-1.176 4.7-1.176 4.7a9 9 0 0 1 9 9v3a9 9 0 0 1-9 9h-5.584a6 6 0 0 1-2.683-.634z" opacity="1" data-original="#000000" class=""></path></g></g></svg>