<svg xmlns="http://www.w3.org/2000/svg" version="1.1" x="0" y="0" viewBox="0 0 32 32" style="enable-background:new 0 0 512 512" xml:space="preserve" class=""><g><path d="M27.315 9.184a.9.9 0 1 0-1.539.933 11.35 11.35 0 0 1 1.637 5.884c0 6.293-5.119 11.412-11.412 11.412-1.17 0-2.312-.174-3.406-.517l1.237-.595a.901.901 0 0 0 .422-1.201.904.904 0 0 0-1.201-.422l-3.125 1.503a.9.9 0 0 0-.391 1.26l1.728 3.008a.9.9 0 1 0 1.56-.897l-.498-.867c1.186.345 2.415.529 3.674.529 7.285 0 13.213-5.928 13.213-13.213 0-2.411-.656-4.769-1.899-6.817zM15.999 4.587c1.17 0 2.312.174 3.406.517l-1.237.595a.901.901 0 0 0 .78 1.623l3.125-1.503a.9.9 0 0 0 .391-1.26l-1.728-3.008a.9.9 0 1 0-1.561.897l.498.867a13.112 13.112 0 0 0-3.674-.529c-7.285 0-13.213 5.928-13.213 13.213 0 2.411.656 4.769 1.898 6.817a.9.9 0 1 0 1.54-.933 11.35 11.35 0 0 1-1.637-5.884c0-6.293 5.119-11.412 11.412-11.412z" opacity="1" data-original="#000000" class=""></path><path d="M19.296 14.875v-2.116c0-1.817-1.479-3.296-3.296-3.296s-3.296 1.479-3.296 3.296v2.116a1.546 1.546 0 0 0-1.177 1.5v3.712c0 .856.694 1.55 1.55 1.55h5.847a1.55 1.55 0 0 0 1.55-1.55v-3.712a1.548 1.548 0 0 0-1.178-1.5zM16 11.264c.824 0 1.495.671 1.495 1.495v2.066h-2.99v-2.066c0-.824.671-1.495 1.495-1.495z" opacity="1" data-original="#000000" class=""></path></g></svg>