<svg xmlns="http://www.w3.org/2000/svg" version="1.1" x="0" y="0" viewBox="0 0 64 64" style="enable-background:new 0 0 512 512" xml:space="preserve" class=""><g><path d="M42.947 26.295a1 1 0 0 1-.537-.157 7.093 7.093 0 0 1-3.172-7.328 1 1 0 0 1 1.966.371 5.102 5.102 0 0 0 2.282 5.271 1 1 0 0 1-.539 1.843zM17.796 27.264c-1.797 0-3.558-.72-4.959-2.098-2.136-2.1-2.772-5.184-1.62-7.856 1.127-2.615 3.623-4.227 6.53-4.227l.112.001c2.957.042 5.456 1.732 6.521 4.413a.999.999 0 0 1-.56 1.298.998.998 0 0 1-1.299-.56c-.91-2.287-3.02-3.128-4.691-3.151-1.671-.01-3.803.756-4.777 3.017-.999 2.317-.042 4.433 1.185 5.64 1.214 1.193 3.324 2.1 5.601 1.073a.999.999 0 1 1 .823 1.822 6.947 6.947 0 0 1-2.866.628z" opacity="1" data-original="#000000"></path><path d="M21.053 26.295a.999.999 0 0 1-.538-1.843 5.103 5.103 0 0 0 2.282-5.271 1 1 0 0 1 1.965-.371 7.093 7.093 0 0 1-3.172 7.328 1 1 0 0 1-.537.157zM46.188 27.251a6.971 6.971 0 0 1-2.846-.613 1 1 0 0 1-.507-1.32.997.997 0 0 1 1.32-.506c2.248 1 4.347.128 5.559-1.021 1.212-1.15 2.193-3.198 1.311-5.497-.901-2.349-3.048-3.196-4.756-3.206-1.706-.013-3.863.813-4.792 3.148a1 1 0 0 1-1.858-.738c1.088-2.738 3.685-4.444 6.662-4.41 3.022.018 5.555 1.738 6.611 4.489 1.033 2.692.343 5.63-1.801 7.664-1.393 1.321-3.133 2.01-4.903 2.01z" opacity="1" data-original="#000000"></path><path d="M31.952 25.745a9.55 9.55 0 0 1-1.77-.166c-4.96-.935-8.485-5.78-7.856-10.802.623-4.978 5.204-8.834 10.29-8.509 5.037.313 9.134 4.679 9.134 9.73 0 .811-.1 1.618-.297 2.399-1.078 4.258-5.074 7.348-9.501 7.348zm.069-17.495c-3.848 0-7.235 2.977-7.71 6.775-.5 3.993 2.301 7.846 6.243 8.589.46.087.93.131 1.398.131 3.525 0 6.705-2.455 7.562-5.837a7.798 7.798 0 0 0 .236-1.909c0-4.016-3.256-7.485-7.259-7.734a7.424 7.424 0 0 0-.47-.015zM32 49.749c-3.523 0-6.5-2.977-6.5-6.5s2.977-6.5 6.5-6.5 6.5 2.977 6.5 6.5-2.977 6.5-6.5 6.5zm0-11c-2.439 0-4.5 2.061-4.5 4.5s2.061 4.5 4.5 4.5 4.5-2.061 4.5-4.5-2.061-4.5-4.5-4.5zM35.001 31.08a.986.986 0 0 1-.193-.019l-.404-.079a1 1 0 0 1 .385-1.963l.404.079a1 1 0 0 1-.192 1.982z" opacity="1" data-original="#000000"></path><path d="M35 34.187a1 1 0 0 1-1-1V30.08a1 1 0 1 1 2 0v3.106a1 1 0 0 1-1 1.001z" opacity="1" data-original="#000000"></path><path d="M36.993 35.013a.994.994 0 0 1-.475-.12 9.431 9.431 0 0 0-1.804-.748 1 1 0 1 1 .571-1.916c.754.225 1.489.529 2.184.904a1 1 0 0 1-.476 1.88z" opacity="1" data-original="#000000"></path><path d="M36.994 35.013a.999.999 0 0 1-.707-1.707l1.906-1.906a.999.999 0 1 1 1.414 1.414l-1.906 1.906a.999.999 0 0 1-.707.293z" opacity="1" data-original="#000000"></path><path d="M38.899 33.106a.999.999 0 0 1-.707-1.707l.291-.291a.999.999 0 1 1 1.414 1.414l-.291.291a.993.993 0 0 1-.707.293z" opacity="1" data-original="#000000"></path><path d="M39.531 33.046c-.192 0-.387-.056-.559-.171l-.341-.23a1 1 0 0 1 1.119-1.659l.341.23a1 1 0 0 1-.56 1.83z" opacity="1" data-original="#000000"></path><path d="M43.205 36.717a1 1 0 0 1-.831-.442 12.422 12.422 0 0 0-3.399-3.398 1 1 0 1 1 1.116-1.66 14.44 14.44 0 0 1 3.944 3.943 1 1 0 0 1-.83 1.557z" opacity="1" data-original="#000000"></path><path d="M43.434 37.059a1 1 0 0 1-.831-.442l-.229-.342a1 1 0 0 1 1.66-1.116l.229.342a1 1 0 0 1-.829 1.558z" opacity="1" data-original="#000000"></path><path d="M41.236 39.255a.999.999 0 0 1-.707-1.707l2.197-2.196a.999.999 0 1 1 1.414 1.414l-2.197 2.196a.997.997 0 0 1-.707.293z" opacity="1" data-original="#000000"></path><path d="M42.062 41.249a1 1 0 0 1-.958-.715 9.569 9.569 0 0 0-.747-1.804 1 1 0 1 1 1.759-.951c.375.692.679 1.428.905 2.185a.999.999 0 0 1-.959 1.285z" opacity="1" data-original="#000000"></path><path d="M44.757 41.249h-2.695a1 1 0 1 1 0-2h2.695a1 1 0 1 1 0 2z" opacity="1" data-original="#000000"></path><path d="M45.169 41.249h-.412a1 1 0 1 1 0-2h.412a1 1 0 1 1 0 2z" opacity="1" data-original="#000000"></path><path d="M45.247 41.653a1 1 0 0 1-.98-.808l-.079-.404a1 1 0 1 1 1.963-.385l.079.404a1.002 1.002 0 0 1-.983 1.193z" opacity="1" data-original="#000000"></path><path d="M45.249 46.845a1 1 0 0 1-.982-1.193 12.422 12.422 0 0 0 0-4.807 1 1 0 0 1 1.963-.385 14.45 14.45 0 0 1 0 5.576 1.001 1.001 0 0 1-.981.809z" opacity="1" data-original="#000000"></path><path d="M45.17 47.249a1.001 1.001 0 0 1-.983-1.193l.079-.404a1.001 1.001 0 0 1 1.963.385l-.079.404a1 1 0 0 1-.98.808z" opacity="1" data-original="#000000"></path><path d="M45.169 47.249h-3.107a1 1 0 1 1 0-2h3.107a1 1 0 1 1 0 2z" opacity="1" data-original="#000000"></path><path d="M41.235 49.243a1 1 0 0 1-.879-1.475c.309-.572.561-1.18.747-1.804a1 1 0 1 1 1.917.57c-.226.757-.53 1.492-.905 2.185a.996.996 0 0 1-.88.524z" opacity="1" data-original="#000000"></path><path d="M43.142 51.148a.997.997 0 0 1-.707-.293l-1.906-1.905a.999.999 0 1 1 1.414-1.414l1.906 1.905a.999.999 0 0 1-.707 1.707z" opacity="1" data-original="#000000"></path><path d="M43.433 51.439a.997.997 0 0 1-.707-.293l-.291-.291a.999.999 0 1 1 1.414-1.414l.291.291a.999.999 0 0 1-.707 1.707z" opacity="1" data-original="#000000"></path><path d="M43.203 51.781a1 1 0 0 1-.829-1.558l.229-.342a1 1 0 1 1 1.66 1.116l-.229.342a1 1 0 0 1-.831.442z" opacity="1" data-original="#000000"></path><path d="M39.533 55.452a1 1 0 0 1-.559-1.83 12.422 12.422 0 0 0 3.399-3.398 1 1 0 0 1 1.66 1.116 14.426 14.426 0 0 1-3.944 3.943.999.999 0 0 1-.556.169z" opacity="1" data-original="#000000"></path><path d="M39.191 55.683a1 1 0 0 1-.561-1.829l.341-.23a1 1 0 0 1 1.119 1.659l-.341.23c-.17.114-.365.17-.558.17z" opacity="1" data-original="#000000"></path><path d="M39.19 55.683a.997.997 0 0 1-.707-.293l-2.197-2.197a.999.999 0 1 1 1.414-1.414l2.197 2.197a.999.999 0 0 1-.707 1.707z" opacity="1" data-original="#000000"></path><path d="M35 54.312a1 1 0 0 1-.285-1.958 9.589 9.589 0 0 0 1.804-.748 1 1 0 0 1 .951 1.759c-.695.375-1.43.68-2.184.904a.987.987 0 0 1-.286.043z" opacity="1" data-original="#000000"></path><path d="M35 57.007a1 1 0 0 1-1-1v-2.695a1 1 0 1 1 2 0v2.695a1 1 0 0 1-1 1z" opacity="1" data-original="#000000"></path><path d="M35 57.418a1 1 0 0 1-1-1v-.411a1 1 0 1 1 2 0v.411a1 1 0 0 1-1 1z" opacity="1" data-original="#000000"></path><path d="M34.595 57.497a1 1 0 0 1-.191-1.982l.404-.079a1 1 0 0 1 .385 1.963l-.404.079a.989.989 0 0 1-.194.019z" opacity="1" data-original="#000000"></path><path d="M32 57.75c-.932 0-1.863-.09-2.789-.271a1 1 0 0 1 .385-1.963c1.595.313 3.212.313 4.808 0a1 1 0 1 1 .385 1.963c-.926.18-1.858.271-2.789.271z" opacity="1" data-original="#000000"></path><path d="M29.405 57.497a.986.986 0 0 1-.193-.019l-.404-.079a1 1 0 0 1 .385-1.963l.404.079a1 1 0 0 1-.192 1.982z" opacity="1" data-original="#000000"></path><path d="M29 57.418a1 1 0 0 1-1-1v-3.106a1 1 0 1 1 2 0v3.106a1 1 0 0 1-1 1z" opacity="1" data-original="#000000"></path><path d="M29 54.312a1.01 1.01 0 0 1-.286-.042 11.575 11.575 0 0 1-2.184-.904 1 1 0 1 1 .951-1.759 9.485 9.485 0 0 0 1.804.748.999.999 0 0 1-.285 1.957z" opacity="1" data-original="#000000"></path><path d="M25.101 55.392a.999.999 0 0 1-.707-1.707l1.906-1.906a.999.999 0 1 1 1.414 1.414l-1.906 1.906a1 1 0 0 1-.707.293z" opacity="1" data-original="#000000"></path><path d="M24.81 55.683a.999.999 0 0 1-.707-1.707l.291-.291a.999.999 0 1 1 1.414 1.414l-.291.291a1 1 0 0 1-.707.293z" opacity="1" data-original="#000000"></path><path d="M24.809 55.683a1 1 0 0 1-.558-.171l-.342-.23a1 1 0 0 1 1.118-1.659l.342.23a1 1 0 0 1-.56 1.83z" opacity="1" data-original="#000000"></path><path d="M24.467 55.452a.995.995 0 0 1-.557-.17 14.45 14.45 0 0 1-3.943-3.943 1 1 0 0 1 1.66-1.116 12.422 12.422 0 0 0 3.399 3.398 1 1 0 0 1-.559 1.831z" opacity="1" data-original="#000000"></path><path d="M20.797 51.781a1 1 0 0 1-.831-.442l-.229-.342a1 1 0 0 1 1.66-1.116l.229.342a1 1 0 0 1-.829 1.558z" opacity="1" data-original="#000000"></path><path d="M20.567 51.439a.999.999 0 0 1-.707-1.707l2.196-2.196a.999.999 0 1 1 1.414 1.414l-2.196 2.196a.993.993 0 0 1-.707.293z" opacity="1" data-original="#000000"></path><path d="M22.764 49.243a1 1 0 0 1-.881-.524 11.568 11.568 0 0 1-.904-2.185.999.999 0 1 1 1.917-.57c.186.623.437 1.229.747 1.804a1 1 0 0 1-.879 1.475z" opacity="1" data-original="#000000"></path><path d="M21.938 47.249h-2.695a1 1 0 1 1 0-2h2.695a1 1 0 1 1 0 2z" opacity="1" data-original="#000000"></path><path d="M19.243 47.249h-.412a1 1 0 1 1 0-2h.412a1 1 0 1 1 0 2z" opacity="1" data-original="#000000"></path><path d="M18.83 47.249a1 1 0 0 1-.98-.808l-.079-.404a1 1 0 1 1 1.963-.385l.079.404a1.002 1.002 0 0 1-.983 1.193z" opacity="1" data-original="#000000"></path><path d="M18.751 46.845a1 1 0 0 1-.98-.808 14.45 14.45 0 0 1 0-5.576 1 1 0 0 1 1.963.385 12.422 12.422 0 0 0 0 4.807 1 1 0 0 1-.983 1.192z" opacity="1" data-original="#000000"></path><path d="M18.753 41.653a1.001 1.001 0 0 1-.983-1.193l.079-.404a1.001 1.001 0 0 1 1.963.385l-.079.404a1 1 0 0 1-.98.808z" opacity="1" data-original="#000000"></path><path d="M21.938 41.249h-3.106a1 1 0 1 1 0-2h3.106a1 1 0 1 1 0 2z" opacity="1" data-original="#000000"></path><path d="M21.938 41.249a.999.999 0 0 1-.959-1.285c.225-.755.529-1.489.904-2.185a1 1 0 0 1 1.76.951 9.492 9.492 0 0 0-.747 1.804 1 1 0 0 1-.958.715z" opacity="1" data-original="#000000"></path><path d="M22.763 39.255a.997.997 0 0 1-.707-.293l-1.905-1.905a.999.999 0 1 1 1.414-1.414l1.905 1.905a.999.999 0 0 1-.707 1.707z" opacity="1" data-original="#000000"></path><path d="M20.858 37.35a.997.997 0 0 1-.707-.293l-.291-.291a.999.999 0 1 1 1.414-1.414l.291.291a.999.999 0 0 1-.707 1.707z" opacity="1" data-original="#000000"></path><path d="M20.566 37.059a1 1 0 0 1-.829-1.558l.229-.342a1 1 0 0 1 1.66 1.116l-.229.342a1.002 1.002 0 0 1-.831.442z" opacity="1" data-original="#000000"></path><path d="M20.795 36.717a1 1 0 0 1-.829-1.558 14.436 14.436 0 0 1 3.943-3.943 1 1 0 0 1 1.116 1.66 12.422 12.422 0 0 0-3.399 3.398.996.996 0 0 1-.831.443z" opacity="1" data-original="#000000"></path><path d="M24.469 33.046a1 1 0 0 1-.56-1.829l.342-.23a1 1 0 0 1 1.118 1.659l-.342.23c-.172.114-.366.17-.558.17z" opacity="1" data-original="#000000"></path><path d="M27.006 35.013a.997.997 0 0 1-.707-.293l-2.197-2.197a.999.999 0 1 1 1.414-1.414l2.197 2.197a.999.999 0 0 1-.707 1.707z" opacity="1" data-original="#000000"></path><path d="M27.007 35.013a1 1 0 0 1-.477-1.879c.696-.376 1.43-.68 2.184-.904a.999.999 0 1 1 .571 1.916 9.616 9.616 0 0 0-1.804.748c-.15.08-.313.119-.474.119z" opacity="1" data-original="#000000"></path><path d="M29 34.187a1 1 0 0 1-1-1v-2.695a1 1 0 1 1 2 0v2.695a1 1 0 0 1-1 1z" opacity="1" data-original="#000000"></path><path d="M29 31.491a1 1 0 0 1-1-1v-.411a1 1 0 1 1 2 0v.411a1 1 0 0 1-1 1z" opacity="1" data-original="#000000"></path><path d="M28.999 31.08a1 1 0 0 1-.191-1.982l.404-.079a1 1 0 0 1 .385 1.963l-.404.079a.996.996 0 0 1-.194.019z" opacity="1" data-original="#000000"></path><path d="M29.403 31.001a1 1 0 0 1-.191-1.982 14.417 14.417 0 0 1 5.577 0 1 1 0 0 1-.385 1.963 12.427 12.427 0 0 0-4.808 0 .986.986 0 0 1-.193.019zM45.393 42.549a1.001 1.001 0 0 1-.306-1.952c.513-.165 1.022-.34 1.529-.523a1 1 0 1 1 .684 1.879c-.53.193-1.063.376-1.6.549a1.065 1.065 0 0 1-.307.047zM18.607 42.549c-.101 0-.205-.016-.306-.048a43.784 43.784 0 0 1-1.601-.549.999.999 0 1 1 .684-1.879c.507.184 1.017.358 1.529.523a1 1 0 0 1-.306 1.953zM15.2 34.509a1 1 0 0 1-1-1 9.36 9.36 0 0 1 4.331-7.916.996.996 0 0 1 1.381.303 1 1 0 0 1-.302 1.381 7.371 7.371 0 0 0-3.41 6.232 1 1 0 0 1-1 1zM48.8 34.509a1 1 0 0 1-1-1 7.37 7.37 0 0 0-3.409-6.232.998.998 0 0 1-.302-1.381.996.996 0 0 1 1.381-.303 9.361 9.361 0 0 1 4.33 7.916 1 1 0 0 1-1 1z" opacity="1" data-original="#000000"></path><path d="M19.071 27.435a1 1 0 0 1-.54-1.842 24.903 24.903 0 0 1 8.256-3.394 1 1 0 0 1 .418 1.956 22.933 22.933 0 0 0-7.596 3.122.995.995 0 0 1-.538.158zM44.929 27.435a.993.993 0 0 1-.538-.158 22.933 22.933 0 0 0-7.596-3.122c-.54-.115-.884-.646-.769-1.187s.647-.891 1.187-.769a24.903 24.903 0 0 1 8.256 3.394 1 1 0 0 1-.54 1.842zM58 33.386a1 1 0 0 1-1-1c0-1.671-.84-3.207-2.249-4.109a1 1 0 1 1 1.079-1.684A6.847 6.847 0 0 1 59 32.386a1 1 0 0 1-1 1z" opacity="1" data-original="#000000"></path><path d="M55.29 28.435a.993.993 0 0 1-.538-.158 15.767 15.767 0 0 0-5.218-2.145c-.54-.115-.884-.646-.769-1.187s.644-.89 1.187-.769a17.701 17.701 0 0 1 5.878 2.416 1 1 0 0 1-.54 1.843zM6 33.386a1 1 0 0 1-1-1 6.852 6.852 0 0 1 3.169-5.793.996.996 0 0 1 1.381.303 1 1 0 0 1-.302 1.381A4.859 4.859 0 0 0 7 32.386a1 1 0 0 1-1 1z" opacity="1" data-original="#000000"></path><path d="M8.709 28.435a1 1 0 0 1-.54-1.842 17.715 17.715 0 0 1 5.879-2.416 1 1 0 0 1 .418 1.956 15.747 15.747 0 0 0-5.219 2.145.998.998 0 0 1-.538.157zM17.042 42.013a1 1 0 0 1-.342-.061 3.81 3.81 0 0 1-2.501-3.57 1 1 0 1 1 2 0c0 .754.476 1.434 1.185 1.691a.999.999 0 0 1-.342 1.94z" opacity="1" data-original="#000000"></path><path d="M15.2 39.382a1 1 0 0 1-1-1v-4.873a1 1 0 1 1 2 0v4.873a1 1 0 0 1-1 1zM46.957 42.013a1 1 0 0 1-.342-1.939 1.807 1.807 0 0 0 1.185-1.691 1 1 0 1 1 2 0 3.81 3.81 0 0 1-2.501 3.57c-.113.04-.228.06-.342.06z" opacity="1" data-original="#000000"></path><path d="M48.8 39.382a1 1 0 0 1-1-1v-4.873a1 1 0 1 1 2 0v4.873a1 1 0 0 1-1 1zM58 36.797a1 1 0 0 1-1-1v-3.411a1 1 0 1 1 2 0v3.411a1 1 0 0 1-1 1z" opacity="1" data-original="#000000"></path><path d="M56.71 38.64a1 1 0 0 1-.342-1.939.966.966 0 0 0 .632-.904 1 1 0 1 1 2 0 2.972 2.972 0 0 1-1.948 2.782 1 1 0 0 1-.342.061z" opacity="1" data-original="#000000"></path><path d="M48.61 40.393a1 1 0 0 1-.077-1.997 29.668 29.668 0 0 0 7.835-1.695 1 1 0 1 1 .684 1.879 31.664 31.664 0 0 1-8.363 1.811l-.079.002zM6 36.797a1 1 0 0 1-1-1v-3.411a1 1 0 1 1 2 0v3.411a1 1 0 0 1-1 1z" opacity="1" data-original="#000000"></path><path d="M7.29 38.64a1 1 0 0 1-.342-.061A2.97 2.97 0 0 1 5 35.797a1 1 0 1 1 2 0c0 .402.254.766.632.903a1 1 0 0 1-.342 1.94z" opacity="1" data-original="#000000"></path><path d="m15.39 40.393-.079-.003a31.624 31.624 0 0 1-8.363-1.811.999.999 0 1 1 .684-1.879 29.668 29.668 0 0 0 7.835 1.695 1 1 0 0 1-.077 1.998z" opacity="1" data-original="#000000"></path></g></svg>