<svg xmlns="http://www.w3.org/2000/svg" version="1.1" x="0" y="0" viewBox="0 0 512 512" style="enable-background:new 0 0 512 512" xml:space="preserve" class=""><g><path d="M376.437 232.804V102.462h30.125V75.249L331.313 0l-75.25 75.25v27.213h30.125v81.052c-9.792-1.811-19.88-2.766-30.188-2.766s-20.396.955-30.188 2.766v-33.059h30.125v-27.213l-75.249-75.25-75.25 75.25v27.213h30.125v82.347c-27.998 29.674-45.187 69.65-45.187 113.57C90.375 437.7 164.674 512 256 512s165.625-74.3 165.625-165.625c0-43.92-17.19-83.897-45.188-113.571zM301.276 72.463l30.037-30.037 30.036 30.036h-14.912V207.69a165.308 165.308 0 0 0-30.25-15.618V72.463zM180.688 90.42l30.037 30.037h-14.912v71.616a165.308 165.308 0 0 0-30.25 15.618v-87.233h-14.912zM256 482c-74.784 0-135.625-60.841-135.625-135.625S181.216 210.75 256 210.75s135.625 60.841 135.625 135.625S330.783 482 256 482z" data-original="#000000" class=""></path><path d="M263.88 331.376h-15.757c-7.547 0-13.687-6.14-13.687-13.687 0-7.546 6.14-13.686 13.687-13.686h15.396c7.557 0 13.704 6.147 13.704 13.704h30c0-21.546-15.677-39.488-36.222-43.049v-18.659h-30v18.595c-20.712 3.412-36.565 21.433-36.565 43.097 0 24.088 19.598 43.686 43.687 43.686h15.757c7.547 0 13.687 6.14 13.687 13.687s-6.14 13.687-13.687 13.687h-16.038c-7.267 0-13.178-5.912-13.178-13.178h-30c0 21.48 15.769 39.342 36.337 42.631v18.553h30v-18.595c20.712-3.411 36.565-21.433 36.565-43.097.001-24.091-19.597-43.689-43.686-43.689z" data-original="#000000" class=""></path></g></svg>