<svg xmlns="http://www.w3.org/2000/svg" version="1.1" x="0" y="0" viewBox="0 0 440.836 440.836" style="enable-background:new 0 0 512 512" xml:space="preserve" class=""><g><path d="M171.31 352.092c18.119 0 39.945-.618 61.565-2.883 6.383 51.475 50.446 91.42 103.569 91.42 57.653 0 104.392-46.74 104.392-104.392s-46.74-104.392-104.392-104.392c-8.648 0-17.09 1.03-25.12 3.089-24.296-20.796-59.3-37.886-93.891-46.534v-8.442c0-.824.824-1.235 1.03-1.441 25.944-17.913 41.386-48.387 41.386-81.743 0-53.329-39.739-96.568-88.538-96.568S82.773 43.651 82.773 96.774c0 33.356 15.443 64.036 41.386 81.743.206.206 1.03.824 1.03 1.441v8.442C63.624 203.843 0 246.259 0 287.645c.206 56.005 107.481 64.447 171.31 64.447zm165.134-102.951c47.975 0 86.891 38.915 86.891 86.891s-38.915 86.891-86.891 86.891c-44.269 0-80.919-33.15-86.273-75.978a94.217 94.217 0 0 1-.618-10.913c0-2.265.206-4.53.206-6.795 2.677-34.591 25.738-63.83 57.241-75.154 6.177-2.265 12.56-3.706 19.355-4.53 3.294-.206 6.794-.412 10.089-.412zm-200.549-45.504 6.795-1.441v-22.443c0-6.177-3.294-12.148-8.442-15.854-21.208-14.619-33.768-39.739-33.768-67.33 0-43.651 31.915-79.272 71.036-79.272s71.036 35.621 71.036 79.272c0 27.591-12.56 52.917-33.768 67.33-5.353 3.706-8.442 9.677-8.442 15.854v22.443l6.795 1.441c32.533 7.207 63.418 21.414 85.449 37.886-34.18 16.06-58.27 50.24-60.123 89.979-19.561 2.059-40.357 3.089-60.947 3.089-74.331 0-153.809-12.354-153.809-47.152.001-30.267 56.212-70.212 118.188-83.802z" data-original="#000000" class=""></path><path d="M301.235 315.236c1.853 5.765 5.765 10.295 10.707 14.001 6.795 4.942 15.237 8.442 22.855 11.325 10.089 3.912 21.62 8.442 21.62 13.59 0 12.148-9.266 16.472-18.119 16.472-11.325 0-21.826-7.207-21.826-12.766 0-4.736-3.912-8.648-8.648-8.648s-8.648 3.912-8.648 8.648c0 14.413 13.59 25.326 28.62 29.032v8.03c0 4.736 3.912 8.648 8.648 8.648s8.648-3.912 8.648-8.648v-7.207c17.09-2.677 28.62-15.649 28.62-33.356 0-17.09-17.296-23.885-32.533-29.856-5.148-2.059-9.677-3.912-13.59-5.765-6.177-3.089-10.089-6.383-10.089-10.501 0-1.235.412-12.56 18.119-12.56 2.265 0 4.118.206 5.765.618 11.736 2.677 12.148 14.001 12.148 14.001 0 4.736 3.912 8.648 8.648 8.648s8.648-3.912 8.648-8.648c0-11.531-8.03-26.973-25.944-31.091v-7.618c0-4.736-3.912-8.648-8.648-8.648h-1.03c-4.324.412-7.824 4.118-7.824 8.648v7.412c-1.441.206-2.677.412-3.912.824-17.09 4.53-23.679 18.531-23.679 28.62.414 2.265.826 4.736 1.444 6.795z" data-original="#000000" class=""></path></g></svg>