<svg xmlns="http://www.w3.org/2000/svg" version="1.1" x="0" y="0" viewBox="0 0 512 512" style="enable-background:new 0 0 512 512" xml:space="preserve" class=""><g><path d="m506.443 244.938-31.018-28.772a18.323 18.323 0 0 1-4.734-7.1l-24.359-66.145a48.953 48.953 0 0 0-45.72-31.817h-36.907V100.75a16.789 16.789 0 0 0-16.789-16.789H123.869A12.748 12.748 0 0 0 110.981 96.2a12.477 12.477 0 0 0 12.474 12.71h215.3v108.247a16.789 16.789 0 0 0 16.789 16.789h101.392l30.113 27.1v101.091h-27.3a53.875 53.875 0 0 0-105.042 0H270.7a53.875 53.875 0 0 0-105.042 0h-41.79a12.747 12.747 0 0 0-12.887 12.242 12.476 12.476 0 0 0 12.474 12.709h42.413a53.882 53.882 0 0 0 104.615 0h84.436a53.882 53.882 0 0 0 104.615 0h35.677A16.789 16.789 0 0 0 512 370.3V257.416a16.817 16.817 0 0 0-5.557-12.478zM363.705 209v-72.948h36.907a23.9 23.9 0 0 1 22.323 15.535L444.2 209zM218.176 403.087a28.937 28.937 0 1 1 28.937-28.936 28.969 28.969 0 0 1-28.937 28.936zm189.051 0a28.937 28.937 0 1 1 28.936-28.936 28.969 28.969 0 0 1-28.936 28.936z" data-original="#000000" class=""></path><path d="M70.183 178.7h141.474a12.476 12.476 0 0 0 0-24.952H70.183a12.476 12.476 0 0 0 0 24.952zM224.133 235.525a12.476 12.476 0 0 0-12.476-12.476H12.476a12.476 12.476 0 1 0 0 24.951h199.181a12.476 12.476 0 0 0 12.476-12.475zM145.138 304.826a12.475 12.475 0 0 0-12.475-12.475H45.952a12.476 12.476 0 0 0 0 24.951h86.711a12.476 12.476 0 0 0 12.475-12.476z" data-original="#000000" class=""></path></g></svg>