<svg xmlns="http://www.w3.org/2000/svg" version="1.1" x="0" y="0" viewBox="0 0 30 30" style="enable-background:new 0 0 512 512" xml:space="preserve" class=""><g><path d="M21.771 16.043c-.981.005-.981 1.495 0 1.5 1.708.029 1.709 2.571 0 2.6a1.3 1.3 0 0 1-1.3-1.3c-.003-.981-1.496-.981-1.5 0a2.8 2.8 0 0 0 2.8 2.8c3.693-.093 3.692-5.506 0-5.6z" opacity="1" data-original="#000000" class=""></path><path d="M28.974 16.971c-3.905-4.59-10.504-4.589-14.408 0a2.657 2.657 0 0 0 0 3.751c3.451 4.145 9.76 4.687 13.615.792l.793-.792a2.657 2.657 0 0 0 0-3.751zm-1.021 2.679c-3.396 3.969-8.933 4.039-12.326.011a1.155 1.155 0 0 1 0-1.63l.793-.793a7.573 7.573 0 0 1 10.7 0l.793.793a1.14 1.14 0 0 1 .04 1.619z" opacity="1" data-original="#000000" class=""></path><path d="M21.905 26.733H3.334a1.585 1.585 0 0 1-1.583-1.584V4.85a1.585 1.585 0 0 1 1.583-1.583H8.64v4.455c-.038 1.587 1.78 2.671 3.16 1.898l1.72-.913 1.719.913a2.151 2.151 0 0 0 2.909-.891c.471-.59.174-4.49.251-5.462h5.238c.874.001 1.582.71 1.583 1.584v6.628a.75.75 0 0 0 1.5 0V4.85a3.087 3.087 0 0 0-3.083-3.084H3.334A3.088 3.088 0 0 0 .251 4.85v20.3a3.086 3.086 0 0 0 3.083 3.083h18.571c.98-.011.983-1.49 0-1.5zM10.145 3.267H16.9v4.455c.018.476-.545.81-.957.574-1.003-.441-2.164-1.498-2.993-.984l-1.85.987c-.411.235-.974-.098-.955-.574z" opacity="1" data-original="#000000" class=""></path><path d="M10.577 18.238H4.19c-.979.004-.982 1.496 0 1.5h6.387c.979-.003.982-1.495 0-1.5zM4.19 22.132c-.979.004-.982 1.496 0 1.5h6.387c.979-.004.982-1.496 0-1.5z" opacity="1" data-original="#000000" class=""></path></g></svg>