<svg xmlns="http://www.w3.org/2000/svg" version="1.1" x="0" y="0" viewBox="0 0 64 64" style="enable-background:new 0 0 512 512" xml:space="preserve" class=""><g><path d="M34.773 37.065H10.677V59A1.004 1.004 0 0 0 11.678 60h26.707V33.963l-1.06 1.691a3.03 3.03 0 0 1-2.552 1.411zM41.457 35.644l-1.07-1.71V60h11.937a1.004 1.004 0 0 0 1.001-1V37.064h-9.316a3.01 3.01 0 0 1-2.552-1.42z" opacity="1" data-original="#000000" class=""></path><path d="m56.907 33.613-3.692-7.385a.998.998 0 0 0-.89-.56H11.677a.998.998 0 0 0-.89.56l-3.693 7.385a1.007 1.007 0 0 0 .89 1.45h26.788a1.025 1.025 0 0 0 .85-.47c.708-1.133 3.109-4.977 3.773-6.043.669 1.09 3.042 4.888 3.762 6.044a1.012 1.012 0 0 0 .851.47h12.008a1.002 1.002 0 0 0 .89-1.451zM46.4 13.13a.937.937 0 0 0 0-.891c-5.85-11.006-22.982-10.965-28.798 0a.937.937 0 0 0 0 .89c5.851 11.007 22.982 10.965 28.799 0zM32.002 7.035c7.459.237 7.457 11.051 0 11.287-7.458-.237-7.457-11.051 0-11.287z" opacity="1" data-original="#000000" class=""></path><path d="M35.644 12.68a3.643 3.643 0 0 0-7.285 0 3.643 3.643 0 0 0 7.285 0z" opacity="1" data-original="#000000" class=""></path></g></svg>