<svg xmlns="http://www.w3.org/2000/svg" version="1.1" x="0" y="0" viewBox="0 0 450 450" style="enable-background:new 0 0 512 512" xml:space="preserve" class=""><g><path d="M200 170h-40v65a5 5 0 0 1-7.236 4.472L115 220.59l-37.764 18.881a4.993 4.993 0 0 1-4.864-.219A4.996 4.996 0 0 1 70 235v-65H30v160h170zM245 160h65V0h-40v65a5 5 0 0 1-7.236 4.472L225 50.59l-37.764 18.882A4.999 4.999 0 0 1 180 65V0h-40v160h65z" opacity="1" data-original="#000000" class=""></path><path d="M117.236 210.528 150 226.91V170H80v56.91l32.764-16.382a4.999 4.999 0 0 1 4.472 0zM300 226.91l32.764-16.382a5 5 0 0 1 4.473 0L370 226.91V170h-70zM227.236 40.528 260 56.91V0h-70v56.91l32.764-16.382a4.999 4.999 0 0 1 4.472 0z" opacity="1" data-original="#000000" class=""></path><path d="M297.236 239.472A5 5 0 0 1 290 235v-65h-40v160h170V170h-40v65a5 5 0 0 1-7.236 4.472L335 220.59zM50 420h30v30H50zM0 340h450v30H0zM0 380h450v30H0zM370 420h30v30h-30z" opacity="1" data-original="#000000" class=""></path></g></svg>