<svg xmlns="http://www.w3.org/2000/svg" version="1.1" x="0" y="0" viewBox="0 0 32 32" style="enable-background:new 0 0 512 512" xml:space="preserve" class=""><g><path d="m17.394 11.081-7-3a.996.996 0 0 0-.788 0l-7 3A1 1 0 0 0 2 12v8a1 1 0 0 0 .606.919l7 3a.995.995 0 0 0 .788 0l7-3A1 1 0 0 0 18 20v-8a1 1 0 0 0-.606-.919zM10 10.088 14.461 12 10 13.912 5.539 12zm-6 3.428 5 2.143v5.825L4 19.34zm7 7.968v-5.825l5-2.143v5.825zM23 17h1.184A2.995 2.995 0 0 0 27 19c1.654 0 3-1.346 3-3s-1.346-3-3-3a2.995 2.995 0 0 0-2.816 2H23V6h1.184A2.995 2.995 0 0 0 27 8c1.654 0 3-1.346 3-3s-1.346-3-3-3a2.995 2.995 0 0 0-2.816 2H22a1 1 0 0 0-1 1v10h-1a1 1 0 0 0 0 2h1v10a1 1 0 0 0 1 1h2.184A2.995 2.995 0 0 0 27 30c1.654 0 3-1.346 3-3s-1.346-3-3-3a2.995 2.995 0 0 0-2.816 2H23zm4-2c.551 0 1 .449 1 1s-.449 1-1 1-1-.449-1-1 .449-1 1-1zm0-11c.551 0 1 .449 1 1s-.449 1-1 1-1-.449-1-1 .449-1 1-1zm0 22c.551 0 1 .449 1 1s-.449 1-1 1-1-.449-1-1 .449-1 1-1z" opacity="1" data-original="#000000" class=""></path></g></svg>