<svg xmlns="http://www.w3.org/2000/svg" version="1.1" x="0" y="0" viewBox="0 0 512 512" style="enable-background:new 0 0 512 512" xml:space="preserve" class=""><g><path d="M481.882 112.941v105.412h15.059c8.317 0 15.059 6.742 15.059 15.059s-6.742 15.059-15.059 15.059H256c-8.317 0-15.059-6.742-15.059-15.059s6.742-15.059 15.059-15.059h15.059V112.941H256c-8.317 0-15.059-6.742-15.059-15.059V75.294a15.058 15.058 0 0 1 8.324-13.469L369.736 1.59a15.057 15.057 0 0 1 13.469 0l120.471 60.235A15.058 15.058 0 0 1 512 75.294v22.588c0 8.317-6.742 15.059-15.059 15.059zm-30.117 0h-30.118v105.412h30.118zm-60.236 0h-30.118v105.412h30.118zm-60.235 0h-30.118v105.412h30.118zm-90.353 263.53v105.412H256c8.317 0 15.059 6.742 15.059 15.059s-6.742 15.059-15.059 15.059H15.059C6.742 512.001 0 505.259 0 496.942s6.742-15.059 15.059-15.059h15.059V376.471H15.059C6.742 376.471 0 369.729 0 361.412v-22.588a15.058 15.058 0 0 1 8.324-13.469l120.471-60.235a15.057 15.057 0 0 1 13.469 0l120.471 60.235a15.058 15.058 0 0 1 8.324 13.469v22.588c0 8.317-6.742 15.059-15.059 15.059zm-30.117 0h-30.118v105.412h30.118zm-60.236 0H120.47v105.412h30.118zm-60.235 0H60.235v105.412h30.118zm353.882-16.351v8.821c0 45.742-37.081 82.823-82.824 82.823h-30.118c-8.317 0-15.059-6.742-15.059-15.059s6.742-15.059 15.059-15.059h30.118c29.108 0 52.706-23.597 52.706-52.706v-8.821l-11.94 11.94c-5.88 5.881-15.415 5.881-21.296 0s-5.881-15.416 0-21.296l37.647-37.647c5.88-5.881 15.415-5.881 21.296 0l37.647 37.647c5.881 5.881 5.881 15.416 0 21.296-5.88 5.881-15.415 5.881-21.296 0zM67.765 151.88v-8.821c0-45.742 37.081-82.824 82.824-82.824h30.118c8.317 0 15.059 6.742 15.059 15.059s-6.742 15.059-15.059 15.059h-30.118c-29.108 0-52.706 23.597-52.706 52.706v8.821l11.94-11.94c5.88-5.881 15.415-5.881 21.296 0s5.881 15.416 0 21.296l-37.647 37.647c-5.88 5.881-15.415 5.881-21.296 0l-37.647-37.647c-5.881-5.881-5.881-15.416 0-21.296 5.88-5.881 15.415-5.881 21.296 0z" opacity="1" data-original="#000000" class=""></path></g></svg>