<svg xmlns="http://www.w3.org/2000/svg" version="1.1" x="0" y="0" viewBox="0 0 48 48" style="enable-background:new 0 0 512 512" xml:space="preserve" class=""><g><path d="M40 24c0 .28-.12.54-.32.73l-14 13c-.29.27-.72.34-1.08.19-.36-.16-.6-.52-.6-.92v-6.03h-.02c-2.79 0-10.96.68-14.05 8.4-.16.39-.53.63-.93.63-.05 0-.11 0-.16-.01-.47-.08-.81-.47-.84-.94-.01-.19-.81-19.3 16-21.92V11c0-.4.24-.76.6-.92s.79-.08 1.08.19l14 13c.2.19.32.45.32.73z" opacity="1" data-original="#000000" class=""></path></g></svg>