<svg xmlns="http://www.w3.org/2000/svg" version="1.1" x="0" y="0" viewBox="0 0 505.853 505.853" style="enable-background:new 0 0 512 512" xml:space="preserve" class=""><g><path d="M81.623 413.134c0 8.196-6.644 14.841-14.841 14.841s-14.841-6.644-14.841-14.841c0-20.019.544-39.196 1.635-57.302a272.173 272.173 0 0 1-20.985 5.072c-8.037 1.608-15.855-3.605-17.463-11.642-1.607-8.037 3.605-15.856 11.642-17.463a242.458 242.458 0 0 0 29.411-7.833c3.196-30.373 8.203-56.747 15.04-77.745 16.346-50.205 45.566-73.256 83.821-54.129 38.218 19.109 39.295 58.985 9.553 95.865-18.465 22.896-46.892 43.089-80.532 57.204-1.619 21-2.44 43.823-2.44 67.973zm59.868-143.81c19.206-23.815 18.729-41.46.278-50.685-17.765-8.882-30.812 1.41-42.324 36.77-4.947 15.193-8.889 33.914-11.795 55.411 22.519-11.454 41.261-25.896 53.841-41.496zm156.594-63.993L431.65 71.766c11.591-11.591 30.385-11.591 41.976 0L497.16 95.3c11.591 11.591 11.591 30.384 0 41.976L363.594 270.841a29.682 29.682 0 0 1-20.988 8.693h-38.375c-8.196 0-14.841-6.644-14.841-14.841v-38.375a29.688 29.688 0 0 1 8.695-20.987zm44.521 44.522 89.043-89.043-23.534-23.534-89.044 89.043v23.534h23.535zm133.566-133.565-23.534-23.534-23.534 23.534 23.534 23.534 23.534-23.534zM166.995 363.544c-5.397 6.168-14.773 6.793-20.941 1.396-6.168-5.397-6.794-14.773-1.396-20.941l41.047-46.911c8.096-9.252 22.159-10.19 31.412-2.094a22.264 22.264 0 0 1 7.43 13.992l1.472 11.777 9.252-9.765c8.456-8.925 22.545-9.305 31.47-.849a22.273 22.273 0 0 1 2.914 3.377l10.985 15.662 49.211-14.008c7.883-2.244 16.092 2.327 18.336 10.21 2.244 7.883-2.327 16.093-10.211 18.337L283.69 359.18a22.261 22.261 0 0 1-24.32-8.628l-8.8-12.547-13.807 14.573a22.256 22.256 0 0 1-13.399 6.778c-12.199 1.525-23.325-7.128-24.85-19.328l-1.368-10.944-30.151 34.46zm263.382-98.851c0-8.196 6.644-14.841 14.841-14.841s14.841 6.644 14.841 14.841v133.565c0 24.589-19.933 44.522-44.522 44.522H126.145c-8.196 0-14.841-6.644-14.841-14.841 0-8.196 6.645-14.841 14.841-14.841h289.391c8.196 0 14.841-6.644 14.841-14.841V264.693zM319.072 101.447c8.196 0 14.841 6.644 14.841 14.841s-6.644 14.841-14.841 14.841H44.522c-8.196 0-14.841 6.644-14.841 14.841v118.725c0 8.196-6.644 14.841-14.841 14.841S0 272.89 0 264.693V145.969c0-24.589 19.933-44.522 44.522-44.522h274.55z" opacity="1" data-original="#000000" class=""></path></g></svg>